<svg id="Capa_1" enable-background="new 0 0 512 512" height="512" viewBox="0 0 512 512" width="512" xmlns="http://www.w3.org/2000/svg"><g><g><g><path d="m406 435.07c2.402-15.3 15-96.901 15-180 0-83.101-12.598-164.7-15-180l-150-39.07-150 39.07c-2.402 15.3-15 96.899-15 180 0 83.099 12.598 164.7 15 180l149 55.93z" fill="#102e49"/></g></g><path d="m406 435.07c2.402-15.3 15-96.901 15-180 0-83.101-12.598-164.7-15-180l-150-39.07v454.63z" fill="#cc2929"/><g id="Coke_2_"><path d="m342.1 435.07-38.55 30-47.55-30c0-150-90-150-90-360l43.09-30 43.01 30c0 22.58 1.42 42.32 3.9 59.95v.03c17.27 122.86 86.1 142.61 86.1 300.02z" fill="#2196fc"/></g><path d="m342.1 435.07-38.55 30-47.55-30v-300.02c17.27 122.86 86.1 142.61 86.1 300.02z" fill="#2196fc"/><path d="m406 75.07h-300c0-1.201.3-2.1.3-2.401.3-2.999 1.802-6 4.2-8.101 6.9-7.199 25.5-30.069 25.5-49.568 0-8.401 6.599-15 15-15h210c8.401 0 15 6.599 15 15 0 19.499 18.6 42.369 25.499 49.569 2.399 2.1 3.9 5.101 4.2 8.101.001.3.301 1.199.301 2.4z" fill="#dfe7f4"/><path d="m376 15c0-8.401-6.599-15-15-15h-105v75.07h150c0-1.201-.3-2.1-.3-2.401-.3-2.999-1.802-6-4.2-8.101-6.9-7.199-25.5-30.069-25.5-49.568z" fill="#c7cfe1"/><path d="m406 435.07c0 1.199-.3 2.1-.3 2.399-.3 3.001-1.802 6-4.2 8.101-6.9 7.199-25.5 31.929-25.5 51.43 0 8.399-6.599 15-15 15h-210c-8.401 0-15-6.601-15-15 0-19.501-18.6-44.231-25.499-51.431-2.399-2.1-3.9-5.099-4.2-8.101 0-.298-.3-1.199-.3-2.399h299.999z" fill="#dfe7f4"/><path d="m256 512h105c8.401 0 15-6.601 15-15 0-19.501 18.6-44.231 25.499-51.431 2.399-2.1 3.9-5.099 4.2-8.101 0-.298.3-1.199.3-2.399h-149.999z" fill="#c7cfe1"/></g></svg>