<svg id="Capa_1" enable-background="new 0 0 512 512" height="512" viewBox="0 0 512 512" width="512" xmlns="http://www.w3.org/2000/svg"><g><g><path d="m147.6 295.167c5.388-5.388 8.077-12.445 8.077-19.513 0-7.067-2.689-14.125-8.077-19.523-5.178-5.168-8.087-12.196-8.087-19.513v-46.563c0-64.286 59.548-82.67 59.548-119.276h113.878c0 36.606 59.548 54.99 59.548 119.276v46.563c0 3.659-.73 7.247-2.099 10.566-1.379 3.309-3.399 6.368-5.988 8.947-10.776 10.786-10.776 28.26 0 39.036 7.927 7.927 14.215 17.174 18.643 27.23l-127.043 28.3-127.043-28.3c4.428-10.056 10.716-19.303 18.643-27.23z" fill="#c1e9fa"/><path d="m390.66 445.112v5.708c0 14.235-5.658 27.89-15.724 37.956s-23.721 15.724-37.956 15.724h-161.96c-14.235 0-27.89-5.658-37.956-15.724s-15.724-23.721-15.724-37.956v-5.708l134.66-17.894z" fill="#c1e9fa"/><path d="m300.544 7.5h-89.089c-17.607 0-31.88 14.273-31.88 31.88v16.913c0 13.523 10.963 24.486 24.486 24.486h103.878c13.523 0 24.486-10.963 24.486-24.486v-16.913c-.001-17.607-14.274-31.88-31.881-31.88z" fill="#59c2e7"/><path d="m128.957 322.397 28.234 6.289c8.863-71.932 31.335-170.973 66.911-257.906h-25.04c0 36.606-59.548 54.989-59.548 119.276v46.563c0 7.317 2.909 14.345 8.087 19.513 5.388 5.398 8.077 12.455 8.077 19.522s-2.689 14.125-8.077 19.513c-7.928 7.927-14.216 17.174-18.644 27.23z" fill="#90d3f1"/><path d="m159.414 440.052-38.074 5.06v5.708c0 14.235 5.658 27.89 15.724 37.956s23.721 15.724 37.956 15.724h14.346c-13.622-19.474-23.847-41.109-29.952-64.448z" fill="#90d3f1"/><path d="m390.66 358.554v86.558h-269.32v-86.558c0-11.886 2.359-23.531 6.827-34.307.26-.62.52-1.24.79-1.849h254.086c4.978 11.285 7.617 23.59 7.617 36.156z" fill="#59c2e7"/><path d="m259.282 147.729c-1.828-1.779-4.735-1.779-6.564 0-65.417 63.619-47.818 120.438 3.282 120.438 51.1-.001 68.699-56.82 3.282-120.438z" fill="#59c2e7"/><path d="m152.876 388.681c0-17.719 1.714-40.39 5.115-66.283h-29.034c-.27.609-.53 1.229-.79 1.849-4.468 10.776-6.828 22.421-6.828 34.307v86.558h39.475c-5.178-17.85-7.938-36.732-7.938-56.431z" fill="#34b5e1"/><path d="m204.061 80.778h16.025c10.105-25.661 21.334-50.41 33.668-73.278h-42.298c-17.607 0-31.88 14.273-31.88 31.88v16.913c0 13.523 10.962 24.485 24.485 24.485z" fill="#34b5e1"/><g><g><g><g><ellipse cx="171.812" cy="395.411" fill="#fff" rx="31.064" ry="24.738"/></g><g><ellipse cx="340.188" cy="395.411" fill="#fff" rx="31.064" ry="24.738"/></g></g></g></g></g><g><path d="m189.916 351.399c-4.142 0-7.5 3.358-7.5 7.5v12.699c0 4.142 3.358 7.5 7.5 7.5s7.5-3.358 7.5-7.5v-12.699c0-4.141-3.358-7.5-7.5-7.5z"/><path d="m322.084 379.098c4.142 0 7.5-3.358 7.5-7.5v-12.699c0-4.142-3.358-7.5-7.5-7.5s-7.5 3.358-7.5 7.5v12.699c0 4.142 3.358 7.5 7.5 7.5z"/><path d="m278.35 365.566c-3.123-2.721-7.86-2.396-10.582.727-6.221 7.139-17.298 7.16-23.537 0-2.721-3.123-7.459-3.448-10.582-.727-3.123 2.722-3.448 7.459-.727 10.582 12.212 14.013 33.955 13.998 46.153 0 2.723-3.123 2.398-7.86-.725-10.582z"/><path d="m256 275.666c55.097 0 81.741-62.097 8.512-133.313-4.771-4.642-12.248-4.642-17.022 0-10.629 10.337-19.568 20.949-26.568 31.542-2.284 3.456-1.334 8.108 2.121 10.392s8.108 1.334 10.393-2.122c5.981-9.05 13.564-18.17 22.564-27.141 24.481 24.484 46.144 59.145 35.531 85.281-5.254 12.94-18.205 20.361-35.53 20.361-29.589 0-45.422-21.339-34.963-53.569 1.278-3.94-.879-8.17-4.819-9.449s-8.17.879-9.448 4.819c-13.74 42.336 9.815 73.199 49.229 73.199z"/><path d="m122.093 319.375c-5.4 12.19-8.254 25.509-8.254 39.179v92.266c0 33.809 27.368 61.18 61.181 61.18h161.96c33.809 0 61.18-27.367 61.18-61.18 0-13.608 0-83.855 0-92.266 0-25.574-10.084-50.317-28.457-68.69-7.834-7.834-7.833-20.588-.01-28.418 6.553-6.529 10.294-15.448 10.294-24.827v-46.563c0-39.494-20.999-63.087-37.872-82.045-7.625-8.567-14.413-16.207-18.28-23.98 9.604-5.525 16.089-15.885 16.089-27.738v-16.913c0-21.714-17.666-39.38-39.38-39.38h-89.089c-21.714 0-39.38 17.666-39.38 39.38v16.913c0 11.853 6.485 22.212 16.089 27.738-3.867 7.773-10.655 15.413-18.28 23.98-16.873 18.958-37.872 42.552-37.872 82.045v46.563c0 9.248 3.75 18.295 10.278 24.812 7.855 7.87 7.85 20.588.005 28.434-9.216 9.217-16.785 20.942-20.202 29.51zm214.887 177.625h-161.96c-24.882 0-45.209-19.674-46.146-44.388h159.657c4.142 0 7.5-3.358 7.5-7.5s-3.358-7.5-7.5-7.5h-159.692v-79.058c0-9.85 1.735-19.476 5.162-28.656h244c3.426 9.172 5.159 18.789 5.159 28.656v79.058h-64.63c-4.142 0-7.5 3.358-7.5 7.5s3.358 7.5 7.5 7.5h64.596c-.935 24.668-21.212 44.388-46.146 44.388zm-149.904-457.62c0-13.443 10.937-24.38 24.38-24.38h89.089c13.443 0 24.38 10.937 24.38 24.38v16.913c0 9.492-7.762 16.985-16.986 16.985h-103.878c-9.235 0-16.985-7.508-16.985-16.985zm-34.178 211.443c-3.74-3.733-5.885-8.91-5.885-14.205v-46.563c0-33.785 18.104-54.126 34.076-72.073 8.713-9.789 17.02-19.123 21.663-29.731 1.084.045 105.602.037 106.495 0 4.643 10.609 12.95 19.942 21.663 29.731 15.973 17.947 34.077 38.288 34.077 72.073v46.563c0 5.506-2.233 10.567-5.893 14.212-13.679 13.691-13.678 35.959.002 49.639 4.395 4.395 8.243 9.222 11.507 14.427h-229.207c3.265-5.206 7.112-10.032 11.507-14.427 13.585-13.583 13.827-35.788-.005-49.646z"/></g></g></svg>